# xmcd
#
# Track frame offsets:
#	150
#	21227
#	38734
#	57861
#	79388
#	95290
#	114117
#	133979
#	149581
#	165858
#	192329
#	206206
#	218520
#	236072
#	251674
#	266526
#	289103
#
# Disc length: 4085 seconds
#
# Revision: 1
# Processed by: cddbd v1.4PL0 Copyright (c) Steve Scherf et al.
# Submitted via: EasyCDDAExtractor 5.0.6
#
DISCID=f70ff311
DTITLE=Joe Cocker - Blues and Ballads
DYEAR=1998
DGENRE=Blues
TTITLE0=N' Oubliez Jamais
TTITLE1=Don't Let Me Be Misunderstood
TTITLE2=You Can Leave Your Hat On
TTITLE3=When The Night Comes
TTITLE4=I Can Stand A Little Rain
TTITLE5=Look What You've Done
TTITLE6=Many Rivers To Cross
TTITLE7=Night Calls
TTITLE8=Fever
TTITLE9=Unchain My Heart
TTITLE10=Anybody Seen My Girl?
TTITLE11=You Are So Beatiful
TTITLE12=Summer In The City
TTITLE13=The Last One To Know
TTITLE14=Don't Forget Me
TTITLE15=You've Got To Hide Your Love Away
TTITLE16=Up Where We Belong
EXTD=
EXTT0=
EXTT1=
EXTT2=
EXTT3=
EXTT4=
EXTT5=
EXTT6=
EXTT7=
EXTT8=
EXTT9=
EXTT10=
EXTT11=
EXTT12=
EXTT13=
EXTT14=
EXTT15=
EXTT16=
PLAYORDER=
